<svg width="32" height="32" viewBox="0 0 32 32" fill="none" xmlns="http://www.w3.org/2000/svg">
<path d="M6 1C5.34339 1 4.69321 1.12933 4.08658 1.3806C3.47995 1.63188 2.92876 2.00017 2.46447 2.46447C1.52678 3.40215 1 4.67392 1 6V26C1 27.3261 1.52678 28.5979 2.46447 29.5355C2.92876 29.9998 3.47995 30.3681 4.08658 30.6194C4.69321 30.8707 5.34339 31 6 31H26C27.3261 31 28.5979 30.4732 29.5355 29.5355C30.4732 28.5979 31 27.3261 31 26V6C31 5.34339 30.8707 4.69321 30.6194 4.08658C30.3681 3.47995 29.9998 2.92876 29.5355 2.46447C29.0712 2.00017 28.52 1.63188 27.9134 1.3806C27.3068 1.12933 26.6566 1 26 1H6ZM3 6C3 5.20435 3.31607 4.44129 3.87868 3.87868C4.44129 3.31607 5.20435 3 6 3H26C26.7956 3 27.5587 3.31607 28.1213 3.87868C28.6839 4.44129 29 5.20435 29 6V26C29.0002 26.6206 28.8079 27.226 28.4498 27.7329C28.0916 28.2397 27.5851 28.623 27 28.83V7.208C27 6.539 26.453 6 25.774 6H22.226C21.547 6 21 6.54 21 7.209V29H19V18.214C19 17.542 18.453 17 17.774 17H14.226C13.547 17 13 17.542 13 18.214V29H11V10.213C11 9.543 10.453 9 9.774 9H6.226C5.547 9 5 9.542 5 10.213V28.83C4.41493 28.623 3.90842 28.2397 3.55024 27.7329C3.19206 27.226 2.99982 26.6206 3 26V6Z" fill="#FFA62B"/>
</svg>
