<svg width="20" height="20" viewBox="0 0 20 20" fill="none" xmlns="http://www.w3.org/2000/svg">
<path d="M10 0C4.486 0 0 4.486 0 10C0 15.514 4.486 20 10 20C15.514 20 20 15.514 20 10C20 4.486 15.514 0 10 0ZM14.186 10.74L10 14.926L5.814 10.74C5.55534 10.4847 5.34996 10.1805 5.20979 9.84515C5.06962 9.5098 4.99744 9.14996 4.99744 8.7865C4.99744 8.42304 5.06962 8.0632 5.20979 7.72785C5.34996 7.39251 5.55534 7.08834 5.814 6.833C6.06932 6.57449 6.37343 6.36924 6.70868 6.22916C7.04393 6.08908 7.40366 6.01694 7.767 6.01694C8.13034 6.01694 8.49007 6.08908 8.82532 6.22916C9.16057 6.36924 9.46468 6.57449 9.72 6.833L10 7.112L10.279 6.833C10.5343 6.57449 10.8384 6.36924 11.1737 6.22916C11.5089 6.08908 11.8687 6.01694 12.232 6.01694C12.5953 6.01694 12.9551 6.08908 13.2903 6.22916C13.6256 6.36924 13.9297 6.57449 14.185 6.833C14.4437 7.08828 14.6492 7.39239 14.7894 7.7277C14.9297 8.06301 15.002 8.42283 15.0021 8.78629C15.0022 9.14975 14.9301 9.50961 14.79 9.84499C14.6499 10.1804 14.4446 10.4846 14.186 10.74Z" fill="#FFA62B"/>
</svg>
