<svg width="896" height="896" viewBox="0 0 896 896" fill="none" xmlns="http://www.w3.org/2000/svg">
<path d="M860.3 274.4C837.864 220.853 805.224 172.182 764.2 131.1C723.298 89.9468 674.712 57.2276 621.2 34.8C566.381 11.7132 507.482 -0.121151 448 5.40487e-06H446C385.5 0.300005 327 12.3 271.9 35.9C218.847 58.5575 170.717 91.3348 130.2 132.4C89.5731 173.389 57.3073 221.89 35.2001 275.2C12.2516 330.636 0.62348 390.103 1.00007 450.1C1.30007 519.5 17.9001 588.4 48.9001 650V802C48.9001 827.4 69.5001 848 94.8001 848H246.6C308.487 879.228 376.781 895.66 446.1 896H448.2C508 896 565.9 884.4 620.5 861.7C673.741 839.54 722.146 807.202 763 766.5C804.2 725.6 836.6 677.8 859.3 624.5C882.8 569.3 894.8 510.6 895.1 450C895.3 389.1 883.5 330 860.3 274.4ZM248.4 496C222 496 200.5 474.5 200.5 448C200.5 421.5 222 400 248.4 400C274.8 400 296.3 421.5 296.3 448C296.3 474.5 274.9 496 248.4 496ZM448 496C421.6 496 400.1 474.5 400.1 448C400.1 421.5 421.6 400 448 400C474.4 400 495.9 421.5 495.9 448C495.9 474.5 474.4 496 448 496ZM647.6 496C621.2 496 599.7 474.5 599.7 448C599.7 421.5 621.2 400 647.6 400C674 400 695.5 421.5 695.5 448C695.5 474.5 674 496 647.6 496Z" fill="white"/>
</svg>
